<svg xmlns="http://www.w3.org/2000/svg" xmlns:xlink="http://www.w3.org/1999/xlink" width="500" zoomAndPan="magnify" viewBox="0 0 375 374.999991" height="500" preserveAspectRatio="xMidYMid meet" version="1.0"><defs><g/><clipPath id="95d47e83fd"><path d="M 26.5 26.75 L 105.988281 26.75 L 105.988281 106.238281 L 26.5 106.238281 Z M 26.5 26.75 " clip-rule="nonzero"/></clipPath><clipPath id="b5f0d86955"><rect x="0" width="145" y="0" height="50"/></clipPath><clipPath id="9e3987c8b4"><path d="M 322.074219 85.441406 L 326.5 85.441406 L 326.5 89.867188 L 322.074219 89.867188 Z M 322.074219 85.441406 " clip-rule="nonzero"/></clipPath><clipPath id="18773469b3"><path d="M 324.285156 85.441406 C 323.066406 85.441406 322.074219 86.429688 322.074219 87.652344 C 322.074219 88.875 323.066406 89.867188 324.285156 89.867188 C 325.507812 89.867188 326.5 88.875 326.5 87.652344 C 326.5 86.429688 325.507812 85.441406 324.285156 85.441406 Z M 324.285156 85.441406 " clip-rule="nonzero"/></clipPath><clipPath id="317449d7ec"><path d="M 0.0742188 0.441406 L 4.5 0.441406 L 4.5 4.867188 L 0.0742188 4.867188 Z M 0.0742188 0.441406 " clip-rule="nonzero"/></clipPath><clipPath id="7abc80a484"><path d="M 2.285156 0.441406 C 1.066406 0.441406 0.0742188 1.429688 0.0742188 2.652344 C 0.0742188 3.875 1.066406 4.867188 2.285156 4.867188 C 3.507812 4.867188 4.5 3.875 4.5 2.652344 C 4.5 1.429688 3.507812 0.441406 2.285156 0.441406 Z M 2.285156 0.441406 " clip-rule="nonzero"/></clipPath><clipPath id="a8fd77e4de"><rect x="0" width="5" y="0" height="5"/></clipPath><clipPath id="82ac977bb9"><path d="M 220.488281 64.773438 L 225.636719 64.773438 L 225.636719 69.703125 L 220.488281 69.703125 Z M 220.488281 64.773438 " clip-rule="nonzero"/></clipPath><clipPath id="043ad3d571"><path d="M 0.488281 0.773438 L 5.636719 0.773438 L 5.636719 5.703125 L 0.488281 5.703125 Z M 0.488281 0.773438 " clip-rule="nonzero"/></clipPath><clipPath id="870213abb4"><rect x="0" width="6" y="0" height="6"/></clipPath><clipPath id="6f73f148ae"><path d="M 220.851562 64.988281 L 225.277344 64.988281 L 225.277344 69.414062 L 220.851562 69.414062 Z M 220.851562 64.988281 " clip-rule="nonzero"/></clipPath><clipPath id="a85f7a3559"><path d="M 223.0625 64.988281 C 221.839844 64.988281 220.851562 65.980469 220.851562 67.203125 C 220.851562 68.425781 221.839844 69.414062 223.0625 69.414062 C 224.285156 69.414062 225.277344 68.425781 225.277344 67.203125 C 225.277344 65.980469 224.285156 64.988281 223.0625 64.988281 Z M 223.0625 64.988281 " clip-rule="nonzero"/></clipPath><clipPath id="feedb956ba"><path d="M 0.851562 0.988281 L 5.277344 0.988281 L 5.277344 5.414062 L 0.851562 5.414062 Z M 0.851562 0.988281 " clip-rule="nonzero"/></clipPath><clipPath id="8513a44ea9"><path d="M 3.0625 0.988281 C 1.839844 0.988281 0.851562 1.980469 0.851562 3.203125 C 0.851562 4.425781 1.839844 5.414062 3.0625 5.414062 C 4.285156 5.414062 5.277344 4.425781 5.277344 3.203125 C 5.277344 1.980469 4.285156 0.988281 3.0625 0.988281 Z M 3.0625 0.988281 " clip-rule="nonzero"/></clipPath><clipPath id="ccf3e41351"><rect x="0" width="6" y="0" height="6"/></clipPath><clipPath id="a3b87b8f43"><path d="M 37.449219 52 L 80 52 L 80 95.714844 L 37.449219 95.714844 Z M 37.449219 52 " clip-rule="nonzero"/></clipPath><clipPath id="5d05b9073d"><path d="M 63 37.699219 L 95 37.699219 L 95 70 L 63 70 Z M 63 37.699219 " clip-rule="nonzero"/></clipPath><clipPath id="df4df07525"><rect x="0" width="327" y="0" height="132"/></clipPath></defs><rect x="-37.5" width="450" fill="none" y="-37.499999" height="449.999989" fill-opacity="1"/><rect x="-37.5" width="450" fill="none" y="-37.499999" height="449.999989" fill-opacity="1"/><g transform="matrix(1, 0, 0, 1, 11, 121)"><g clip-path="url(#df4df07525)"><g clip-path="url(#95d47e83fd)"><path stroke-linecap="butt" transform="matrix(0.828809, 0, 0, 0.828809, 26.500002, 26.749946)" fill="none" stroke-linejoin="miter" d="M -0.00000245835 0.0000646979 L 95.906625 0.0000646979 L 95.906625 95.906692 L -0.00000245835 95.906692 Z M -0.00000245835 0.0000646979 " stroke="#b62ac7" stroke-width="14.478605" stroke-opacity="1" stroke-miterlimit="4"/></g><g fill="#000000" fill-opacity="1"><g transform="translate(113.301948, 54.337288)"><g><path d="M 5.421875 -5.671875 L 9.234375 -5.671875 L 7.375 -11.59375 L 7.34375 -11.59375 Z M 3.546875 0 L 0.25 0 L 5.59375 -14.96875 L 9.203125 -14.96875 L 14.46875 0 L 11.078125 0 L 10.109375 -3.078125 L 4.59375 -3.078125 Z M 3.546875 0 "/></g></g></g><g fill="#000000" fill-opacity="1"><g transform="translate(126.972694, 54.337288)"><g><path d="M 11.265625 0 L 7.65625 0 L 5.734375 -3.34375 L 3.828125 0 L 0.3125 0 L 4.078125 -5.65625 L 0.453125 -11.09375 L 3.984375 -11.09375 L 5.875 -7.859375 L 7.703125 -11.09375 L 11.140625 -11.09375 L 7.484375 -5.65625 Z M 11.265625 0 "/></g></g></g><g fill="#000000" fill-opacity="1"><g transform="translate(136.799575, 54.337288)"><g><path d="M 8.328125 -6.640625 C 8.273438 -7.347656 8.046875 -7.914062 7.640625 -8.34375 C 7.242188 -8.769531 6.726562 -8.984375 6.09375 -8.984375 C 4.707031 -8.984375 3.914062 -8.203125 3.71875 -6.640625 Z M 11.21875 -3.25 C 10.875 -2.101562 10.265625 -1.222656 9.390625 -0.609375 C 8.515625 -0.00390625 7.5 0.296875 6.34375 0.296875 C 4.519531 0.296875 3.125 -0.207031 2.15625 -1.21875 C 1.195312 -2.226562 0.71875 -3.625 0.71875 -5.40625 C 0.71875 -7.195312 1.171875 -8.640625 2.078125 -9.734375 C 2.984375 -10.828125 4.332031 -11.375 6.125 -11.375 C 7.738281 -11.375 9.007812 -10.863281 9.9375 -9.84375 C 10.875 -8.820312 11.34375 -7.296875 11.34375 -5.265625 L 11.34375 -4.75 L 3.640625 -4.75 C 3.703125 -3.851562 3.960938 -3.175781 4.421875 -2.71875 C 4.890625 -2.269531 5.519531 -2.046875 6.3125 -2.046875 C 6.78125 -2.046875 7.1875 -2.15625 7.53125 -2.375 C 7.882812 -2.59375 8.113281 -2.882812 8.21875 -3.25 Z M 11.21875 -3.25 "/></g></g></g><g fill="#000000" fill-opacity="1"><g transform="translate(147.694489, 54.337288)"><g><path d="M 4.34375 0 L 1.421875 0 L 1.421875 -14.96875 L 4.34375 -14.96875 Z M 4.34375 0 "/></g></g></g><g fill="#000000" fill-opacity="1"><g transform="translate(152.417497, 54.337288)"><g><path d="M 9.03125 -5.546875 C 9.03125 -6.609375 8.8125 -7.4375 8.375 -8.03125 C 7.9375 -8.625 7.28125 -8.921875 6.40625 -8.921875 C 5.582031 -8.921875 4.9375 -8.640625 4.46875 -8.078125 C 4 -7.523438 3.765625 -6.679688 3.765625 -5.546875 C 3.765625 -4.429688 3.988281 -3.585938 4.4375 -3.015625 C 4.894531 -2.453125 5.550781 -2.171875 6.40625 -2.171875 C 7.28125 -2.171875 7.9375 -2.460938 8.375 -3.046875 C 8.8125 -3.640625 9.03125 -4.472656 9.03125 -5.546875 Z M 12.046875 -5.546875 C 12.046875 -3.734375 11.523438 -2.304688 10.484375 -1.265625 C 9.441406 -0.222656 8.082031 0.296875 6.40625 0.296875 C 4.75 0.296875 3.394531 -0.21875 2.34375 -1.25 C 1.289062 -2.289062 0.765625 -3.722656 0.765625 -5.546875 C 0.765625 -7.390625 1.289062 -8.820312 2.34375 -9.84375 C 3.394531 -10.863281 4.75 -11.375 6.40625 -11.375 C 8.09375 -11.375 9.453125 -10.847656 10.484375 -9.796875 C 11.523438 -8.753906 12.046875 -7.335938 12.046875 -5.546875 Z M 12.046875 -5.546875 "/></g></g></g><g fill="#000000" fill-opacity="1"><g transform="translate(164.166513, 54.337288)"><g><path d="M 1.421875 -11.09375 L 4.21875 -11.09375 L 4.21875 -9.171875 L 4.265625 -9.171875 C 4.597656 -9.898438 5.003906 -10.445312 5.484375 -10.8125 C 5.972656 -11.1875 6.582031 -11.375 7.3125 -11.375 C 7.5 -11.375 7.6875 -11.363281 7.875 -11.34375 L 7.875 -8.375 C 7.726562 -8.40625 7.445312 -8.421875 7.03125 -8.421875 C 6.125 -8.421875 5.445312 -8.203125 5 -7.765625 C 4.5625 -7.328125 4.34375 -6.660156 4.34375 -5.765625 L 4.34375 0 L 1.421875 0 Z M 1.421875 -11.09375 "/></g></g></g><g fill="#000000" fill-opacity="1"><g transform="translate(171.339981, 54.337288)"><g/></g></g><g fill="#000000" fill-opacity="1"><g transform="translate(174.85239, 54.337288)"><g><path d="M 7.953125 0 L 4.828125 0 L 4.828125 -12.3125 L 0.3125 -12.3125 L 0.3125 -14.96875 L 12.484375 -14.96875 L 12.484375 -12.3125 L 7.953125 -12.3125 Z M 7.953125 0 "/></g></g></g><g fill="#000000" fill-opacity="1"><g transform="translate(186.58107, 54.337288)"><g><path d="M 11.453125 0 L 8.53125 0 L 8.53125 -6.890625 C 8.53125 -7.566406 8.375 -8.070312 8.0625 -8.40625 C 7.757812 -8.75 7.285156 -8.921875 6.640625 -8.921875 C 5.910156 -8.921875 5.34375 -8.679688 4.9375 -8.203125 C 4.539062 -7.722656 4.34375 -7.109375 4.34375 -6.359375 L 4.34375 0 L 1.421875 0 L 1.421875 -14.96875 L 4.34375 -14.96875 L 4.34375 -9.671875 L 4.390625 -9.671875 C 5.054688 -10.804688 6.140625 -11.375 7.640625 -11.375 C 8.785156 -11.375 9.707031 -11.035156 10.40625 -10.359375 C 11.101562 -9.691406 11.453125 -8.796875 11.453125 -7.671875 Z M 11.453125 0 "/></g></g></g><g fill="#000000" fill-opacity="1"><g transform="translate(198.248743, 54.337288)"><g><path d="M 8.328125 -6.640625 C 8.273438 -7.347656 8.046875 -7.914062 7.640625 -8.34375 C 7.242188 -8.769531 6.726562 -8.984375 6.09375 -8.984375 C 4.707031 -8.984375 3.914062 -8.203125 3.71875 -6.640625 Z M 11.21875 -3.25 C 10.875 -2.101562 10.265625 -1.222656 9.390625 -0.609375 C 8.515625 -0.00390625 7.5 0.296875 6.34375 0.296875 C 4.519531 0.296875 3.125 -0.207031 2.15625 -1.21875 C 1.195312 -2.226562 0.71875 -3.625 0.71875 -5.40625 C 0.71875 -7.195312 1.171875 -8.640625 2.078125 -9.734375 C 2.984375 -10.828125 4.332031 -11.375 6.125 -11.375 C 7.738281 -11.375 9.007812 -10.863281 9.9375 -9.84375 C 10.875 -8.820312 11.34375 -7.296875 11.34375 -5.265625 L 11.34375 -4.75 L 3.640625 -4.75 C 3.703125 -3.851562 3.960938 -3.175781 4.421875 -2.71875 C 4.890625 -2.269531 5.519531 -2.046875 6.3125 -2.046875 C 6.78125 -2.046875 7.1875 -2.15625 7.53125 -2.375 C 7.882812 -2.59375 8.113281 -2.882812 8.21875 -3.25 Z M 11.21875 -3.25 "/></g></g></g><g fill="#000000" fill-opacity="1"><g transform="translate(209.143657, 54.337288)"><g><path d="M 17.3125 0 L 14.390625 0 L 14.390625 -6.78125 C 14.390625 -7.425781 14.257812 -7.941406 14 -8.328125 C 13.75 -8.722656 13.332031 -8.921875 12.75 -8.921875 C 12.175781 -8.921875 11.710938 -8.738281 11.359375 -8.375 C 11.003906 -8.019531 10.828125 -7.484375 10.828125 -6.765625 L 10.828125 0 L 7.90625 0 L 7.90625 -6.921875 C 7.90625 -7.609375 7.765625 -8.113281 7.484375 -8.4375 C 7.210938 -8.757812 6.769531 -8.921875 6.15625 -8.921875 C 5.539062 -8.921875 5.082031 -8.738281 4.78125 -8.375 C 4.488281 -8.019531 4.34375 -7.484375 4.34375 -6.765625 L 4.34375 0 L 1.421875 0 L 1.421875 -11.09375 L 4.21875 -11.09375 L 4.21875 -9.46875 L 4.265625 -9.46875 C 4.910156 -10.738281 5.984375 -11.375 7.484375 -11.375 C 8.835938 -11.375 9.84375 -10.785156 10.5 -9.609375 C 11.238281 -10.785156 12.222656 -11.375 13.453125 -11.375 C 14.597656 -11.375 15.523438 -11.050781 16.234375 -10.40625 C 16.953125 -9.757812 17.3125 -8.847656 17.3125 -7.671875 Z M 17.3125 0 "/></g></g></g><g fill="#000000" fill-opacity="1"><g transform="translate(226.668031, 54.337288)"><g><path d="M 8.328125 -6.640625 C 8.273438 -7.347656 8.046875 -7.914062 7.640625 -8.34375 C 7.242188 -8.769531 6.726562 -8.984375 6.09375 -8.984375 C 4.707031 -8.984375 3.914062 -8.203125 3.71875 -6.640625 Z M 11.21875 -3.25 C 10.875 -2.101562 10.265625 -1.222656 9.390625 -0.609375 C 8.515625 -0.00390625 7.5 0.296875 6.34375 0.296875 C 4.519531 0.296875 3.125 -0.207031 2.15625 -1.21875 C 1.195312 -2.226562 0.71875 -3.625 0.71875 -5.40625 C 0.71875 -7.195312 1.171875 -8.640625 2.078125 -9.734375 C 2.984375 -10.828125 4.332031 -11.375 6.125 -11.375 C 7.738281 -11.375 9.007812 -10.863281 9.9375 -9.84375 C 10.875 -8.820312 11.34375 -7.296875 11.34375 -5.265625 L 11.34375 -4.75 L 3.640625 -4.75 C 3.703125 -3.851562 3.960938 -3.175781 4.421875 -2.71875 C 4.890625 -2.269531 5.519531 -2.046875 6.3125 -2.046875 C 6.78125 -2.046875 7.1875 -2.15625 7.53125 -2.375 C 7.882812 -2.59375 8.113281 -2.882812 8.21875 -3.25 Z M 11.21875 -3.25 "/></g></g></g><g fill="#000000" fill-opacity="1"><g transform="translate(237.562945, 54.337288)"><g/></g></g><g fill="#000000" fill-opacity="1"><g transform="translate(242.113098, 54.337288)"><g><path d="M 4.59375 -2.578125 L 7.640625 -2.578125 C 8.703125 -2.578125 9.53125 -3.023438 10.125 -3.921875 C 10.726562 -4.816406 11.03125 -6.046875 11.03125 -7.609375 C 11.03125 -9.222656 10.753906 -10.421875 10.203125 -11.203125 C 9.660156 -11.992188 8.820312 -12.390625 7.6875 -12.390625 L 4.59375 -12.390625 Z M 1.53125 -14.96875 L 8.125 -14.96875 C 10.15625 -14.96875 11.675781 -14.304688 12.6875 -12.984375 C 13.707031 -11.671875 14.21875 -9.957031 14.21875 -7.84375 C 14.21875 -5.488281 13.675781 -3.59375 12.59375 -2.15625 C 11.507812 -0.71875 9.984375 0 8.015625 0 L 1.53125 0 Z M 1.53125 -14.96875 "/></g></g></g><g fill="#000000" fill-opacity="1"><g transform="translate(256.190559, 54.337288)"><g><path d="M 8.328125 -6.640625 C 8.273438 -7.347656 8.046875 -7.914062 7.640625 -8.34375 C 7.242188 -8.769531 6.726562 -8.984375 6.09375 -8.984375 C 4.707031 -8.984375 3.914062 -8.203125 3.71875 -6.640625 Z M 11.21875 -3.25 C 10.875 -2.101562 10.265625 -1.222656 9.390625 -0.609375 C 8.515625 -0.00390625 7.5 0.296875 6.34375 0.296875 C 4.519531 0.296875 3.125 -0.207031 2.15625 -1.21875 C 1.195312 -2.226562 0.71875 -3.625 0.71875 -5.40625 C 0.71875 -7.195312 1.171875 -8.640625 2.078125 -9.734375 C 2.984375 -10.828125 4.332031 -11.375 6.125 -11.375 C 7.738281 -11.375 9.007812 -10.863281 9.9375 -9.84375 C 10.875 -8.820312 11.34375 -7.296875 11.34375 -5.265625 L 11.34375 -4.75 L 3.640625 -4.75 C 3.703125 -3.851562 3.960938 -3.175781 4.421875 -2.71875 C 4.890625 -2.269531 5.519531 -2.046875 6.3125 -2.046875 C 6.78125 -2.046875 7.1875 -2.15625 7.53125 -2.375 C 7.882812 -2.59375 8.113281 -2.882812 8.21875 -3.25 Z M 11.21875 -3.25 "/></g></g></g><g fill="#000000" fill-opacity="1"><g transform="translate(267.085473, 54.337288)"><g><path d="M 7.625 -7.6875 C 7.570312 -8.175781 7.394531 -8.550781 7.09375 -8.8125 C 6.789062 -9.070312 6.316406 -9.203125 5.671875 -9.203125 C 5.066406 -9.203125 4.617188 -9.101562 4.328125 -8.90625 C 4.046875 -8.71875 3.90625 -8.472656 3.90625 -8.171875 C 3.90625 -7.878906 4.023438 -7.648438 4.265625 -7.484375 C 4.503906 -7.328125 5.429688 -7.0625 7.046875 -6.6875 C 8.703125 -6.300781 9.753906 -5.847656 10.203125 -5.328125 C 10.648438 -4.816406 10.875 -4.179688 10.875 -3.421875 C 10.875 -2.191406 10.441406 -1.25 9.578125 -0.59375 C 8.710938 0.0507812 7.421875 0.375 5.703125 0.375 C 4.191406 0.375 3.003906 0.0625 2.140625 -0.5625 C 1.285156 -1.1875 0.789062 -2.164062 0.65625 -3.5 L 3.65625 -3.5 C 3.65625 -2.925781 3.835938 -2.5 4.203125 -2.21875 C 4.578125 -1.9375 5.140625 -1.796875 5.890625 -1.796875 C 6.523438 -1.796875 7.015625 -1.890625 7.359375 -2.078125 C 7.703125 -2.273438 7.875 -2.53125 7.875 -2.84375 C 7.875 -3.175781 7.75 -3.429688 7.5 -3.609375 C 7.25 -3.785156 6.410156 -4.023438 4.984375 -4.328125 C 3.378906 -4.671875 2.316406 -5.113281 1.796875 -5.65625 C 1.285156 -6.207031 1.03125 -6.867188 1.03125 -7.640625 C 1.03125 -8.734375 1.421875 -9.628906 2.203125 -10.328125 C 2.992188 -11.023438 4.160156 -11.375 5.703125 -11.375 C 7.203125 -11.375 8.351562 -11.0625 9.15625 -10.4375 C 9.957031 -9.8125 10.40625 -8.894531 10.5 -7.6875 Z M 7.625 -7.6875 "/></g></g></g><g fill="#000000" fill-opacity="1"><g transform="translate(277.614343, 54.337288)"><g><path d="M 4.34375 -12.40625 L 1.421875 -12.40625 L 1.421875 -15.109375 L 4.34375 -15.109375 Z M 4.34375 -11.09375 L 4.34375 0 L 1.421875 0 L 1.421875 -11.09375 Z M 4.34375 -11.09375 "/></g></g></g><g fill="#000000" fill-opacity="1"><g transform="translate(282.337351, 54.337288)"><g><path d="M 3.765625 -5.484375 C 3.765625 -4.554688 3.96875 -3.8125 4.375 -3.25 C 4.78125 -2.6875 5.347656 -2.40625 6.078125 -2.40625 C 6.878906 -2.40625 7.492188 -2.675781 7.921875 -3.21875 C 8.347656 -3.769531 8.5625 -4.566406 8.5625 -5.609375 C 8.5625 -6.578125 8.332031 -7.359375 7.875 -7.953125 C 7.414062 -8.554688 6.8125 -8.859375 6.0625 -8.859375 C 5.382812 -8.859375 4.832031 -8.578125 4.40625 -8.015625 C 3.976562 -7.453125 3.765625 -6.609375 3.765625 -5.484375 Z M 11.453125 -11.09375 L 11.453125 -0.28125 C 11.453125 1.394531 10.988281 2.613281 10.0625 3.375 C 9.144531 4.132812 7.742188 4.515625 5.859375 4.515625 C 4.492188 4.515625 3.359375 4.21875 2.453125 3.625 C 1.546875 3.039062 1.0625 2.226562 1 1.1875 L 4.1875 1.1875 C 4.257812 1.9375 4.941406 2.3125 6.234375 2.3125 C 7.765625 2.3125 8.53125 1.507812 8.53125 -0.09375 L 8.53125 -1.5625 L 8.5 -1.609375 C 7.9375 -0.492188 6.945312 0.0625 5.53125 0.0625 C 4.09375 0.0625 2.9375 -0.4375 2.0625 -1.4375 C 1.195312 -2.4375 0.765625 -3.847656 0.765625 -5.671875 C 0.765625 -7.453125 1.195312 -8.847656 2.0625 -9.859375 C 2.925781 -10.867188 4.03125 -11.375 5.375 -11.375 C 6.90625 -11.375 7.988281 -10.726562 8.625 -9.4375 L 8.65625 -9.4375 L 8.65625 -11.09375 Z M 11.453125 -11.09375 "/></g></g></g><g fill="#000000" fill-opacity="1"><g transform="translate(294.11687, 54.337288)"><g><path d="M 11.453125 0 L 8.53125 0 L 8.53125 -6.890625 C 8.53125 -7.535156 8.382812 -8.035156 8.09375 -8.390625 C 7.800781 -8.742188 7.316406 -8.921875 6.640625 -8.921875 C 5.941406 -8.921875 5.382812 -8.691406 4.96875 -8.234375 C 4.550781 -7.773438 4.34375 -7.148438 4.34375 -6.359375 L 4.34375 0 L 1.421875 0 L 1.421875 -11.09375 L 4.21875 -11.09375 L 4.21875 -9.46875 L 4.265625 -9.46875 C 4.960938 -10.738281 6.066406 -11.375 7.578125 -11.375 C 8.703125 -11.375 9.628906 -11.050781 10.359375 -10.40625 C 11.085938 -9.757812 11.453125 -8.847656 11.453125 -7.671875 Z M 11.453125 0 "/></g></g></g><g fill="#000000" fill-opacity="1"><g transform="translate(305.784543, 54.337288)"><g><path d="M 8.328125 -6.640625 C 8.273438 -7.347656 8.046875 -7.914062 7.640625 -8.34375 C 7.242188 -8.769531 6.726562 -8.984375 6.09375 -8.984375 C 4.707031 -8.984375 3.914062 -8.203125 3.71875 -6.640625 Z M 11.21875 -3.25 C 10.875 -2.101562 10.265625 -1.222656 9.390625 -0.609375 C 8.515625 -0.00390625 7.5 0.296875 6.34375 0.296875 C 4.519531 0.296875 3.125 -0.207031 2.15625 -1.21875 C 1.195312 -2.226562 0.71875 -3.625 0.71875 -5.40625 C 0.71875 -7.195312 1.171875 -8.640625 2.078125 -9.734375 C 2.984375 -10.828125 4.332031 -11.375 6.125 -11.375 C 7.738281 -11.375 9.007812 -10.863281 9.9375 -9.84375 C 10.875 -8.820312 11.34375 -7.296875 11.34375 -5.265625 L 11.34375 -4.75 L 3.640625 -4.75 C 3.703125 -3.851562 3.960938 -3.175781 4.421875 -2.71875 C 4.890625 -2.269531 5.519531 -2.046875 6.3125 -2.046875 C 6.78125 -2.046875 7.1875 -2.15625 7.53125 -2.375 C 7.882812 -2.59375 8.113281 -2.882812 8.21875 -3.25 Z M 11.21875 -3.25 "/></g></g></g><g fill="#000000" fill-opacity="1"><g transform="translate(316.679457, 54.337288)"><g><path d="M 1.421875 -11.09375 L 4.21875 -11.09375 L 4.21875 -9.171875 L 4.265625 -9.171875 C 4.597656 -9.898438 5.003906 -10.445312 5.484375 -10.8125 C 5.972656 -11.1875 6.582031 -11.375 7.3125 -11.375 C 7.5 -11.375 7.6875 -11.363281 7.875 -11.34375 L 7.875 -8.375 C 7.726562 -8.40625 7.445312 -8.421875 7.03125 -8.421875 C 6.125 -8.421875 5.445312 -8.203125 5 -7.765625 C 4.5625 -7.328125 4.34375 -6.660156 4.34375 -5.765625 L 4.34375 0 L 1.421875 0 Z M 1.421875 -11.09375 "/></g></g></g><g transform="matrix(1, 0, 0, 1, 177, 49)"><g clip-path="url(#b5f0d86955)"><g fill="#01014f" fill-opacity="1"><g transform="translate(0.685544, 40.909471)"><g><path d="M 6.390625 -7.609375 C 6.390625 -6.390625 6.835938 -5.414062 7.734375 -4.6875 C 8.640625 -3.96875 9.929688 -3.609375 11.609375 -3.609375 C 13.285156 -3.609375 14.5625 -3.878906 15.4375 -4.421875 C 16.320312 -4.960938 16.765625 -5.765625 16.765625 -6.828125 C 16.765625 -7.453125 16.535156 -7.992188 16.078125 -8.453125 C 15.628906 -8.910156 14.554688 -9.34375 12.859375 -9.75 L 8.65625 -10.71875 C 6 -11.34375 4.191406 -12.195312 3.234375 -13.28125 C 2.273438 -14.363281 1.796875 -15.851562 1.796875 -17.75 C 1.796875 -19.976562 2.585938 -21.800781 4.171875 -23.21875 C 5.753906 -24.632812 8.132812 -25.34375 11.3125 -25.34375 C 14.457031 -25.34375 16.84375 -24.546875 18.46875 -22.953125 C 20.101562 -21.367188 20.925781 -19.507812 20.9375 -17.375 L 15.984375 -17.375 C 15.867188 -18.582031 15.394531 -19.5 14.5625 -20.125 C 13.738281 -20.757812 12.523438 -21.078125 10.921875 -21.078125 C 9.628906 -21.078125 8.585938 -20.8125 7.796875 -20.28125 C 7.015625 -19.75 6.625 -19.03125 6.625 -18.125 C 6.625 -17.5 6.796875 -16.976562 7.140625 -16.5625 C 7.484375 -16.144531 8.039062 -15.84375 8.8125 -15.65625 L 15.421875 -14.03125 C 17.804688 -13.445312 19.453125 -12.609375 20.359375 -11.515625 C 21.265625 -10.421875 21.71875 -9.054688 21.71875 -7.421875 C 21.71875 -4.734375 20.785156 -2.710938 18.921875 -1.359375 C 17.054688 -0.015625 14.75 0.65625 12 0.65625 C 8.4375 0.65625 5.78125 -0.0976562 4.03125 -1.609375 C 2.289062 -3.128906 1.421875 -5.128906 1.421875 -7.609375 Z M 6.390625 -7.609375 "/></g></g></g><g fill="#01014f" fill-opacity="1"><g transform="translate(22.028908, 40.909471)"><g><path d="M 18.90625 0 L 14.078125 0 L 14.078125 -11.375 C 14.078125 -12.488281 13.820312 -13.328125 13.3125 -13.890625 C 12.800781 -14.453125 12.015625 -14.734375 10.953125 -14.734375 C 9.753906 -14.734375 8.820312 -14.332031 8.15625 -13.53125 C 7.5 -12.738281 7.171875 -11.726562 7.171875 -10.5 L 7.171875 0 L 2.359375 0 L 2.359375 -24.703125 L 7.171875 -24.703125 L 7.171875 -15.984375 L 7.234375 -15.984375 C 8.335938 -17.847656 10.125 -18.78125 12.59375 -18.78125 C 14.5 -18.78125 16.023438 -18.222656 17.171875 -17.109375 C 18.328125 -15.992188 18.90625 -14.515625 18.90625 -12.671875 Z M 18.90625 0 "/></g></g></g><g fill="#01014f" fill-opacity="1"><g transform="translate(41.306135, 40.909471)"><g><path d="M 7.171875 -20.484375 L 2.359375 -20.484375 L 2.359375 -24.953125 L 7.171875 -24.953125 Z M 7.171875 -18.3125 L 7.171875 0 L 2.359375 0 L 2.359375 -18.3125 Z M 7.171875 -18.3125 "/></g></g></g><g fill="#01014f" fill-opacity="1"><g transform="translate(49.110422, 40.909471)"><g><path d="M 12.046875 0 L 6.984375 0 L 0.421875 -18.3125 L 5.78125 -18.3125 L 9.5625 -4.828125 L 9.625 -4.828125 L 13.53125 -18.3125 L 18.640625 -18.3125 Z M 12.046875 0 "/></g></g></g><g fill="#01014f" fill-opacity="1"><g transform="translate(66.405501, 40.909471)"><g><path d="M 12.859375 -8.875 C 12.265625 -8.457031 11.109375 -8.125 9.390625 -7.875 C 7.953125 -7.675781 7.007812 -7.351562 6.5625 -6.90625 C 6.125 -6.46875 5.90625 -5.882812 5.90625 -5.15625 C 5.90625 -4.425781 6.140625 -3.875 6.609375 -3.5 C 7.085938 -3.132812 7.648438 -2.953125 8.296875 -2.953125 C 9.523438 -2.953125 10.59375 -3.296875 11.5 -3.984375 C 12.40625 -4.671875 12.859375 -5.53125 12.859375 -6.5625 Z M 17.5625 -3.578125 C 17.5625 -2.734375 17.640625 -2.070312 17.796875 -1.59375 C 17.953125 -1.125 18.222656 -0.832031 18.609375 -0.71875 L 18.609375 0 L 13.453125 0 C 13.234375 -0.613281 13.078125 -1.335938 12.984375 -2.171875 C 11.421875 -0.398438 9.382812 0.484375 6.875 0.484375 C 5.132812 0.484375 3.734375 0.00390625 2.671875 -0.953125 C 1.617188 -1.921875 1.09375 -3.222656 1.09375 -4.859375 C 1.09375 -6.421875 1.550781 -7.710938 2.46875 -8.734375 C 3.394531 -9.753906 4.78125 -10.398438 6.625 -10.671875 L 11.125 -11.328125 C 11.738281 -11.410156 12.179688 -11.578125 12.453125 -11.828125 C 12.722656 -12.085938 12.859375 -12.410156 12.859375 -12.796875 C 12.859375 -13.503906 12.597656 -14.039062 12.078125 -14.40625 C 11.566406 -14.769531 10.773438 -14.953125 9.703125 -14.953125 C 8.597656 -14.953125 7.789062 -14.75 7.28125 -14.34375 C 6.769531 -13.945312 6.453125 -13.289062 6.328125 -12.375 L 1.6875 -12.375 C 1.914062 -14.601562 2.671875 -16.226562 3.953125 -17.25 C 5.234375 -18.269531 7.28125 -18.78125 10.09375 -18.78125 C 12.351562 -18.78125 14.160156 -18.328125 15.515625 -17.421875 C 16.878906 -16.515625 17.5625 -15.203125 17.5625 -13.484375 Z M 17.5625 -3.578125 "/></g></g></g><g fill="#01014f" fill-opacity="1"><g transform="translate(84.338899, 40.909471)"><g><path d="M 18.90625 0 L 14.078125 0 L 14.078125 -11.375 C 14.078125 -12.4375 13.835938 -13.257812 13.359375 -13.84375 C 12.878906 -14.4375 12.078125 -14.734375 10.953125 -14.734375 C 9.796875 -14.734375 8.875 -14.351562 8.1875 -13.59375 C 7.507812 -12.84375 7.171875 -11.8125 7.171875 -10.5 L 7.171875 0 L 2.359375 0 L 2.359375 -18.3125 L 6.96875 -18.3125 L 6.96875 -15.625 L 7.046875 -15.625 C 8.191406 -17.726562 10.007812 -18.78125 12.5 -18.78125 C 14.375 -18.78125 15.910156 -18.242188 17.109375 -17.171875 C 18.304688 -16.109375 18.90625 -14.609375 18.90625 -12.671875 Z M 18.90625 0 "/></g></g></g><g fill="#01014f" fill-opacity="1"><g transform="translate(103.616126, 40.909471)"><g><path d="M 7.734375 -18.3125 L 10.71875 -18.3125 L 10.71875 -14.875 L 7.734375 -14.875 L 7.734375 -4.609375 C 7.734375 -4.117188 7.863281 -3.800781 8.125 -3.65625 C 8.382812 -3.507812 8.789062 -3.4375 9.34375 -3.4375 C 9.882812 -3.4375 10.34375 -3.460938 10.71875 -3.515625 L 10.71875 0.0625 C 10.007812 0.175781 9.140625 0.234375 8.109375 0.234375 C 6.210938 0.234375 4.867188 -0.0507812 4.078125 -0.625 C 3.296875 -1.207031 2.90625 -2.25 2.90625 -3.75 L 2.90625 -14.875 L 0.421875 -14.875 L 0.421875 -18.3125 L 2.90625 -18.3125 L 2.90625 -23.25 L 7.734375 -23.25 Z M 7.734375 -18.3125 "/></g></g></g><g fill="#01014f" fill-opacity="1"><g transform="translate(113.452955, 40.909471)"><g><path d="M 2.359375 -18.3125 L 6.96875 -18.3125 L 6.96875 -15.140625 L 7.046875 -15.140625 C 7.597656 -16.335938 8.269531 -17.242188 9.0625 -17.859375 C 9.863281 -18.472656 10.863281 -18.78125 12.0625 -18.78125 C 12.375 -18.78125 12.679688 -18.757812 12.984375 -18.71875 L 12.984375 -13.828125 C 12.765625 -13.867188 12.304688 -13.890625 11.609375 -13.890625 C 10.109375 -13.890625 8.992188 -13.523438 8.265625 -12.796875 C 7.535156 -12.078125 7.171875 -10.988281 7.171875 -9.53125 L 7.171875 0 L 2.359375 0 Z M 2.359375 -18.3125 "/></g></g></g><g fill="#01014f" fill-opacity="1"><g transform="translate(125.305526, 40.909471)"><g><path d="M 12.859375 -8.875 C 12.265625 -8.457031 11.109375 -8.125 9.390625 -7.875 C 7.953125 -7.675781 7.007812 -7.351562 6.5625 -6.90625 C 6.125 -6.46875 5.90625 -5.882812 5.90625 -5.15625 C 5.90625 -4.425781 6.140625 -3.875 6.609375 -3.5 C 7.085938 -3.132812 7.648438 -2.953125 8.296875 -2.953125 C 9.523438 -2.953125 10.59375 -3.296875 11.5 -3.984375 C 12.40625 -4.671875 12.859375 -5.53125 12.859375 -6.5625 Z M 17.5625 -3.578125 C 17.5625 -2.734375 17.640625 -2.070312 17.796875 -1.59375 C 17.953125 -1.125 18.222656 -0.832031 18.609375 -0.71875 L 18.609375 0 L 13.453125 0 C 13.234375 -0.613281 13.078125 -1.335938 12.984375 -2.171875 C 11.421875 -0.398438 9.382812 0.484375 6.875 0.484375 C 5.132812 0.484375 3.734375 0.00390625 2.671875 -0.953125 C 1.617188 -1.921875 1.09375 -3.222656 1.09375 -4.859375 C 1.09375 -6.421875 1.550781 -7.710938 2.46875 -8.734375 C 3.394531 -9.753906 4.78125 -10.398438 6.625 -10.671875 L 11.125 -11.328125 C 11.738281 -11.410156 12.179688 -11.578125 12.453125 -11.828125 C 12.722656 -12.085938 12.859375 -12.410156 12.859375 -12.796875 C 12.859375 -13.503906 12.597656 -14.039062 12.078125 -14.40625 C 11.566406 -14.769531 10.773438 -14.953125 9.703125 -14.953125 C 8.597656 -14.953125 7.789062 -14.75 7.28125 -14.34375 C 6.769531 -13.945312 6.453125 -13.289062 6.328125 -12.375 L 1.6875 -12.375 C 1.914062 -14.601562 2.671875 -16.226562 3.953125 -17.25 C 5.234375 -18.269531 7.28125 -18.78125 10.09375 -18.78125 C 12.351562 -18.78125 14.160156 -18.328125 15.515625 -17.421875 C 16.878906 -16.515625 17.5625 -15.203125 17.5625 -13.484375 Z M 17.5625 -3.578125 "/></g></g></g></g></g><g clip-path="url(#9e3987c8b4)"><g clip-path="url(#18773469b3)"><g transform="matrix(1, 0, 0, 1, 322, 85)"><g clip-path="url(#a8fd77e4de)"><g clip-path="url(#317449d7ec)"><g clip-path="url(#7abc80a484)"><path fill="#01014f" d="M 0.0742188 0.441406 L 4.5 0.441406 L 4.5 4.867188 L 0.0742188 4.867188 Z M 0.0742188 0.441406 " fill-opacity="1" fill-rule="nonzero"/></g></g></g></g></g></g><g clip-path="url(#82ac977bb9)"><g transform="matrix(1, 0, 0, 1, 220, 64)"><g clip-path="url(#870213abb4)"><g clip-path="url(#043ad3d571)"><path fill="#ffffff" d="M 0.488281 0.773438 L 5.632812 0.773438 L 5.632812 5.703125 L 0.488281 5.703125 Z M 0.488281 0.773438 " fill-opacity="1" fill-rule="nonzero"/></g></g></g></g><g clip-path="url(#6f73f148ae)"><g clip-path="url(#a85f7a3559)"><g transform="matrix(1, 0, 0, 1, 220, 64)"><g clip-path="url(#ccf3e41351)"><g clip-path="url(#feedb956ba)"><g clip-path="url(#8513a44ea9)"><path fill="#01014f" d="M 0.851562 0.988281 L 5.277344 0.988281 L 5.277344 5.414062 L 0.851562 5.414062 Z M 0.851562 0.988281 " fill-opacity="1" fill-rule="nonzero"/></g></g></g></g></g></g><g clip-path="url(#a3b87b8f43)"><path fill="#9b17f5" d="M 47.933594 56.566406 L 61.894531 52.828125 L 79.890625 70.824219 L 76.152344 84.785156 C 75.824219 86.007812 74.855469 86.976562 73.617188 87.289062 L 42.703125 95.109375 C 41.996094 95.28125 41.503906 94.417969 42.019531 93.902344 L 58.527344 77.394531 C 60.550781 78.183594 62.9375 77.769531 64.566406 76.136719 C 67.054688 73.648438 66.726562 69.417969 63.605469 67.382812 C 61.796875 66.199219 59.390625 66.191406 57.574219 67.355469 C 55.136719 68.925781 54.398438 71.808594 55.324219 74.191406 L 38.816406 90.699219 C 38.300781 91.214844 37.4375 90.722656 37.609375 90.015625 L 45.429688 59.101562 C 45.742188 57.863281 46.710938 56.894531 47.933594 56.566406 " fill-opacity="1" fill-rule="nonzero"/></g><g clip-path="url(#5d05b9073d)"><path fill="#9b17f5" d="M 64.320312 44.976562 C 65.511719 43.785156 67.449219 43.785156 68.644531 44.976562 L 68.882812 45.214844 L 75.941406 38.152344 C 76.40625 37.691406 77.164062 37.691406 77.625 38.152344 L 94.566406 55.09375 C 95.027344 55.554688 95.027344 56.3125 94.566406 56.777344 L 87.503906 63.835938 L 87.742188 64.078125 C 88.339844 64.671875 88.636719 65.445312 88.636719 66.238281 C 88.636719 67.027344 88.339844 67.800781 87.742188 68.398438 C 86.550781 69.589844 84.613281 69.589844 83.421875 68.398438 L 64.320312 49.296875 C 63.726562 48.703125 63.429688 47.925781 63.429688 47.136719 C 63.429688 46.347656 63.726562 45.570312 64.320312 44.976562 " fill-opacity="1" fill-rule="nonzero"/></g></g></g></svg>